<?xml version="1.0" encoding="utf-8"?>
<!-- Generator: Adobe Illustrator 18.1.1, SVG Export Plug-In . SVG Version: 6.00 Build 0)  -->
<svg version="1.1" id="Layer_1" xmlns="http://www.w3.org/2000/svg" xmlns:xlink="http://www.w3.org/1999/xlink" x="0px" y="0px"
	 viewBox="0 0 400 400" enable-background="new 0 0 400 400" xml:space="preserve">
<rect x="77.5" y="85.7" fill="#FFFFFF" stroke="#000000" stroke-width="4" stroke-miterlimit="10" width="239.2" height="240.3"/>
<rect x="80.2" y="88.5" fill="#FF4591" width="79.6" height="113.5"/>
<rect x="170.6" y="88.5" fill="#FF4591" width="144.3" height="113.5"/>
<rect x="170.6" y="210.5" fill="#FF4591" width="144.3" height="113.7"/>
<rect x="80.2" y="210.5" fill="#FF4591" width="79.6" height="113.7"/>
<path stroke="#000000" stroke-width="0.9093" stroke-miterlimit="10" d="M161.2,197.4c0,0-17.7-15.8-42.5-13.4
	c0,0-8.7,1.1-10.2,10.1c-1.5,9.1-1.5,19.6,0,22.7c1.5,3,6.4,14,18.7,10.4c12.3-3.7,29.5-10.1,29.5-10.1s3.6,13-36.4,31.9
	c0,0,16.6,0.9,27.9-3.2c0,0,4.4,11,2.8,16.2c0,0,21.3-26.6,21.3-29.6s10.2,16.2,9.7,31.1c0,0,12.3-12.5,10.5-19
	c0,0,22.8,4.1,28.7,2.6c0,0-34.3-22.9-36.1-30c0,0,17.9,8.6,32,10.4c14.1,1.7,16.6-11.7,16.6-11.7s1.3-17.9,0-23.5
	c-1.3-5.6-11.3-11.9-19.5-9.7c0,0-22.5,3.1-32.8,12.9C181.4,195.4,165.5,192.2,161.2,197.4z"/>
</svg>
