<?xml version="1.0" encoding="utf-8"?>
<!-- Generator: Adobe Illustrator 18.1.1, SVG Export Plug-In . SVG Version: 6.00 Build 0)  -->
<svg version="1.1" id="Layer_1" xmlns="http://www.w3.org/2000/svg" xmlns:xlink="http://www.w3.org/1999/xlink" x="0px" y="0px"
	 viewBox="0 0 400 400" enable-background="new 0 0 400 400" xml:space="preserve">
<path fill="#FF4591" stroke="#000000" stroke-width="4" stroke-miterlimit="10" d="M140.7,184.8c0,0-80-8.8-66.3-61.7
	c0,0,12.5-37.1,58.4-25c0,0-2.3,29.7,30.6,54.3c0,0-5.8,22.9-16,30.3c0,0-0.5,0.8,3.5,2.1s-3.9,6.3-9.5,5.5
	C141.4,190.3,140.5,189.1,140.7,184.8z"/>
<line fill="#39B54A" stroke="#000000" stroke-width="4" stroke-miterlimit="10" x1="148.2" y1="189.1" x2="199.1" y2="292"/>
<line fill="#39B54A" stroke="#000000" stroke-width="4" stroke-miterlimit="10" x1="202.6" y1="173.1" x2="203.5" y2="292"/>
<line fill="#39B54A" stroke="#000000" stroke-width="4" stroke-miterlimit="10" x1="248.2" y1="190.3" x2="207.9" y2="292"/>
<path fill="#FF4591" stroke="#000000" stroke-width="4" stroke-miterlimit="10" d="M194.7,164.5c0,0-63.3-22.1-56.8-73.5
	s73-39.7,73-39.7s32.9,9.2,37.3,38.3S235,141,235,141s-13.7,16.2-27.1,23.4c0,0-0.9,1.6,1.2,5.7s-10.6,2.9-10.6,2.9
	s-3.7,0.6-5.3-2.1C193.2,170.9,196.3,165.1,194.7,164.5z"/>
<path fill="#FF4591" stroke="#000000" stroke-width="4" stroke-miterlimit="10" d="M250.7,82.4c0,0,25.7-10.3,53.2,3.8
	c27.5,14.1,21.9,42.8,21.9,42.8s-2.1,26.4-30.2,39.9c-28.2,13.5-41.3,14-41.3,14s1.2,5.9,0.2,6.3c-0.9,0.4-8.8,1.6-11.6-2.1
	c0,0-1.2-2,3.9-4.9c0,0-11.1-9-19.9-27.9C226.9,154.1,268.9,116.2,250.7,82.4z"/>
<path fill="#FF4591" stroke="#000000" stroke-width="4" stroke-miterlimit="10" d="M196.8,293.4c0,0-12-10.7-28.9-9.1
	c0,0-5.9,0.7-7,6.9s-1,13.3,0,15.4c1,2.1,4.3,9.5,12.7,7s20-6.9,20-6.9s2.4,8.8-24.7,21.7c0,0,11.3,0.6,18.9-2.2c0,0,3,7.5,1.9,11
	c0,0,14.4-18,14.4-20.1s7,11,6.6,21.1c0,0,8.3-8.5,7.1-12.9c0,0,15.5,2.8,19.5,1.8c0,0-23.3-15.5-24.5-20.4c0,0,12.2,5.9,21.7,7
	c9.6,1.2,11.3-7.9,11.3-7.9s0.9-12.2,0-16c-0.9-3.8-7.6-8.1-13.2-6.6c0,0-15.3,2.1-22.2,8.7C210.5,292,199.8,289.9,196.8,293.4z"/>
</svg>
