<?xml version="1.0" encoding="utf-8"?>
<!-- Generator: Adobe Illustrator 18.1.1, SVG Export Plug-In . SVG Version: 6.00 Build 0)  -->
<svg version="1.1" id="Layer_1" xmlns="http://www.w3.org/2000/svg" xmlns:xlink="http://www.w3.org/1999/xlink" x="0px" y="0px"
	 viewBox="0 0 400 400" enable-background="new 0 0 400 400" xml:space="preserve">
<ellipse id="head_3_" transform="matrix(-0.9984 5.691018e-02 -5.691018e-02 -0.9984 559.3481 252.1025)" fill="#FFFFFF" stroke="#000000" stroke-width="4" stroke-miterlimit="10" cx="276.1" cy="134" rx="49.4" ry="53.4"/>
<path id="body_3_" fill="#FF4591" stroke="#000000" stroke-width="4" stroke-miterlimit="10" d="M252.1,184.4c0,0,21.4,21,56.1-3.2
	c41.3-28.8,61.2,75.1,61.2,75.1s-82.1,28.2-166,4.9C203.5,261.3,202.3,187.3,252.1,184.4z"/>
<path stroke="#000000" stroke-width="1.4032" stroke-miterlimit="10" d="M294.2,108.9c-1.3-3.8-1.6-4.2-5.3-3
	c-18.2,5.9-44,20.6-69.1,15.2c-18.3-3.9,4-27.4,4.6-27.6c6.5-2.3,59.3-52.2,85.4-19.5c17.1,21.3,22.7,43.3,24.6,52.3
	c0.5,2.6,1.1,19.5-12.3,27.8c-2.3,1.4-13.9,1.1-10.4-3.2c4.3-5.3,7.4-39.8-7.3-22.9L294.2,108.9z"/>
<ellipse id="head_2_" transform="matrix(-1 -1.490743e-03 1.490743e-03 -1 259.274 340.7242)" fill="#FFFFFF" stroke="#000000" stroke-width="4" stroke-miterlimit="10" cx="129.8" cy="170.3" rx="56.6" ry="61.1"/>
<path id="body_2_" fill="#FF4591" stroke="#000000" stroke-width="4" stroke-miterlimit="10" d="M97.7,224.6c0,0,32.6,35.5,66.5-1.8
	c30.6-33.7,69.7,84.9,69.7,84.9s-97,39.9-191.3,7.6C42.5,315.3,46.4,219.2,97.7,224.6z"/>
<path stroke="#000000" stroke-width="1.6062" stroke-miterlimit="10" d="M89.6,212.5c0,0,0,0-16.5,3c-16.5,3-31.6-17.9-31.6-17.9
	s-12.3-18.8,7-39.1c0,0,1.6-53.5,42.1-58.7s63.9-0.5,73.3-14.2c0,0,61.4,54.1,54.2,88.7c-7.8,37.4-44.5,34.5-44.5,34.5
	s9-53-16.8-81.3c0,0-17.1,16.7-74.3,22C82.5,149.6,77.7,190.5,89.6,212.5z"/>
</svg>
